<svg id="Layer_1" data-name="Layer 1" xmlns="http://www.w3.org/2000/svg" viewBox="0 0 1500 1000"><defs><style>.cls-1{fill:#003893;}.cls-2{fill:#dc143c;}.cls-3{fill:#fff;}</style></defs><title>nepal</title><polygon class="cls-1" points="0 1000 0 0 792.77 495.8 269.2 495.8 774.05 1000 0 1000"/><path id="_28" data-name="28" class="cls-2" d="M17.64,478.27h714L17.64,31.74V982.47h714l-714-713Z"/><path id="_27" data-name="27" class="cls-3" d="M53.93,310.82C84.79,389.25,173.48,427.85,252,397a152.7,152.7,0,0,0,86.31-86.2c0,78.43-63.66,142-142.2,142s-142.2-63.59-142.2-142"/><path id="_26" data-name="26" class="cls-3" d="M196.13,310.82A66.09,66.09,0,1,1,130,376.91,66.13,66.13,0,0,1,196.13,310.82Z"/><path id="_25" data-name="25" class="cls-3" d="M221.45,315.85l-7.39-29-17.93,23.93"/><path id="_24" data-name="24" class="cls-3" d="M242.92,330.18l4.27-29.59-25.74,15.26"/><path id="_23" data-name="23" class="cls-3" d="M257.27,351.62l15.27-25.7-29.62,4.26"/><path id="_22" data-name="22" class="cls-3" d="M262.3,376.91l24-17.91-29-7.38"/><path id="_21" data-name="21" class="cls-3" d="M257.27,402.2l29-7.39-24-17.9"/><path id="_20" data-name="20" class="cls-3" d="M242.92,423.64l29.62,4.26-15.27-25.7"/><path id="_19" data-name="19" class="cls-3" d="M170.81,315.85l7.39-29,17.93,23.93"/><path id="_18" data-name="18" class="cls-3" d="M149.34,330.18l-4.27-29.59,25.74,15.26"/><path id="_17" data-name="17" class="cls-3" d="M135,351.62l-15.27-25.7,29.62,4.26"/><path id="_16" data-name="16" class="cls-3" d="M130,376.91,106,359l29-7.38"/><path id="_15" data-name="15" class="cls-3" d="M135,402.2l-29-7.39,24-17.9"/><polygon id="_1" data-name="1" class="cls-3" points="119.73 598.22 127.61 661.93 63.81 654.07 102.53 705.32 43.34 730.37 102.53 755.41 63.81 806.66 127.61 798.8 119.73 862.51 171.05 823.85 196.13 882.96 221.21 823.85 272.53 862.51 264.65 798.8 328.45 806.66 289.73 755.41 348.92 730.37 289.73 705.32 328.45 654.07 264.65 661.93 272.53 598.22 221.21 636.89 196.13 577.77 171.05 636.89 119.73 598.22"/></svg>